<?xml version="1.0" encoding="utf-8" standalone="yes"?>
<!DOCTYPE svg PUBLIC "-//W3C//DTD SVG 1.1//EN" "http://www.w3.org/Graphics/SVG/1.1/DTD/svg11.dtd">
<svg style="fill:none;stroke:none;fill-rule:evenodd;clip-rule:evenodd;stroke-linecap:round;stroke-linejoin:round;stroke-miterlimit:1.5;" version="1.1" xmlns="http://www.w3.org/2000/svg" xmlns:xlink="http://www.w3.org/1999/xlink" width="1020" height="661" viewBox="0 0 1020 661"><style class="text-font-style fontImports" data-font-family="Roboto">@import url(https://fonts.googleapis.com/css2?family=Roboto:wght@400;700&amp;amp;display=block);</style><g id="items" style="isolation: isolate"><g id="blend" style="mix-blend-mode: normal"><g id="g-root-cp_6_g-6_hwiv4g1mca9z4-fill" data-item-order="-537506" transform="translate(612.718994140625, 421.87396240234375)"><g id="cp_6_g-6_hwiv4g1mca9z4-fill-merged" stroke="none" fill="#ba5de5" fill-opacity="1"><g><path d="M248.67 41.365L176.986 10L185.618 36.596L95.333 65.898C89.295 52.541 81.881 39.762 73.162 27.779L10 73.741C27.133 97.286 36.372 125.65 36.394 154.768 H114.508C114.498 140.138 113.013 125.686 110.122 111.563L200.436 82.252L209.067 108.847L248.67 41.365"></path></g></g></g><g id="g-root-cp_5_g-5_90vuvk1mcaart-fill" data-item-order="-537502" transform="translate(543.739013671875, 267.7320556640625)"><g id="cp_5_g-5_90vuvk1mcaart-fill-merged" stroke="none" fill="#de58a9" fill-opacity="1"><g><path d="M182.516 10L106.086 26.755L128.701 43.199L72.62 120.324C60.415 113.524 47.516 107.888 34.084 103.535L10 177.844C37.7 186.822 61.847 204.338 78.98 227.883L142.142 181.921C133.157 169.574 122.941 158.285 111.697 148.202L167.523 71.428L190.138 87.873L182.516 10"></path></g></g></g><g id="g-root-cp_4_g-4_90vuvk1mcaaru-fill" data-item-order="-537498" transform="translate(434.3210754394531, 197)"><g id="cp_4_g-4_90vuvk1mcaaru-fill-merged" stroke="none" fill="#e55753" fill-opacity="1"><g><path d="M75.94 10L128.679 68.5 H100.299 V165.015C114.898 166.605 129.373 169.689 143.495 174.265L119.414 248.575C91.714 239.598 61.883 239.621 34.196 248.641L10 174.368C23.599 169.938 37.528 166.893 51.581 165.234 V68.5 H23.201L75.94 10"></path></g></g></g><g id="g-root-cp_3_g-3_4l2cr41mcabk3-fill" data-item-order="-537494" transform="translate(275.5480041503906, 266.73199462890625)"><g id="cp_3_g-3_4l2cr41mcabk3-fill-merged" stroke="none" fill="#de8431" fill-opacity="1"><g><path d="M17.621 10L94.051 26.755L71.436 43.199L128.913 122.243C141.547 115.06 154.94 109.132 168.911 104.591L193.057 178.88C165.365 187.88 141.232 205.417 124.119 228.976L60.919 183.068C69.558 171.174 79.34 160.26 90.082 150.458L32.615 71.428L10 87.873L17.621 10"></path></g></g></g><g id="g-root-cp_2_g-2_1ur5vkg1mca8zw-fill" data-item-order="-537490" transform="translate(148, 421.88494873046875)"><g id="cp_2_g-2_1ur5vkg1mca8zw-fill-merged" stroke="none" fill="#e0cb15" fill-opacity="1"><g><path d="M10 41.466L81.639 10L73.045 36.608L166.059 66.65C172.137 53.065 179.635 40.071 188.479 27.898L251.675 73.813C234.56 97.37 225.341 125.741 225.341 154.86 H147.227C147.227 140.516 148.655 126.287 151.447 112.372L58.292 82.285L49.698 108.893L10 41.466"></path></g></g></g><g id="g-root-tx_platform_1d1rac01mcaade-fill" data-item-order="0" transform="translate(452, 86)"><g id="tx_platform_1d1rac01mcaade-fill-merged" stroke="none" fill="#e55753" fill-opacity="1"><g><text style="font: bold 20px Roboto, sans-serif; white-space: pre;" transform="translate(58, 34)" font-weight="bold" font-size="20px" font-family="Roboto, sans-serif"><tspan x="-41.08" y="-0.5" dominant-baseline="ideographic">Platform </tspan><tspan x="-42.66" y="23.5" dominant-baseline="ideographic">Blueprint</tspan></text></g></g></g><g id="g-root-tx_selectsr_zqaryo1mcabyb-fill" data-item-order="0" transform="translate(440, 146)"><g id="tx_selectsr_zqaryo1mcabyb-fill-merged" stroke="none" fill="#484848" fill-opacity="1"><g><text style="font: 15px Roboto, sans-serif; white-space: pre;" transform="translate(70, 28)" font-size="15px" font-family="Roboto, sans-serif"><tspan x="-41.51" y="-0.5" dominant-baseline="ideographic">Selects right </tspan><tspan x="-56.34" y="17.5" dominant-baseline="ideographic">technology, tools</tspan></text></g></g></g><g id="g-root-tx_aiplaybo_1usetqo1mcab60-fill" data-item-order="0" transform="translate(194, 182)"><g id="tx_aiplaybo_1usetqo1mcab60-fill-merged" stroke="none" fill="#de8431" fill-opacity="1"><g><text style="font: bold 20px Roboto, sans-serif; white-space: pre;" transform="translate(130, 22)" font-weight="bold" font-size="20px" font-family="Roboto, sans-serif"><tspan x="-109.6" y="11.5" dominant-baseline="ideographic">AI Playbook</tspan></text></g></g></g><g id="g-root-tx_producti_qva8sw1mca9l8-fill" data-item-order="0" transform="translate(686, 158)"><g id="tx_producti_qva8sw1mca9l8-fill-merged" stroke="none" fill="#de58a9" fill-opacity="1"><g><text style="font: bold 20px Roboto, sans-serif; white-space: pre;" transform="translate(10, 34)" font-weight="bold" font-size="20px" font-family="Roboto, sans-serif"><tspan x="2" y="-0.5" dominant-baseline="ideographic">Production </tspan><tspan x="2" y="23.5" dominant-baseline="ideographic">Readiness</tspan></text></g></g></g><g id="g-root-tx_accessin_1hhksgg1mca9l5-fill" data-item-order="0" transform="translate(182, 218)"><g id="tx_accessin_1hhksgg1mca9l5-fill-merged" stroke="none" fill="#484848" fill-opacity="1"><g><text style="font: 15px Roboto, sans-serif; white-space: pre;" transform="translate(142, 28)" font-size="15px" font-family="Roboto, sans-serif"><tspan x="-112.41" y="-0.5" dominant-baseline="ideographic">Access industry-</tspan><tspan x="-124.64" y="17.5" dominant-baseline="ideographic">specific use cases</tspan></text></g></g></g><g id="g-root-tx_ensuresc_djtqfk1mcab65-fill" data-item-order="0" transform="translate(686, 218)"><g id="tx_ensuresc_djtqfk1mcab65-fill-merged" stroke="none" fill="#484848" fill-opacity="1"><g><text style="font: 15px Roboto, sans-serif; white-space: pre;" transform="translate(10, 28)" font-size="15px" font-family="Roboto, sans-serif"><tspan x="2" y="-0.5" dominant-baseline="ideographic">Ensures compliance, </tspan><tspan x="2" y="17.5" dominant-baseline="ideographic">security</tspan></text></g></g></g><g id="g-root-tx_readines_zp1tsg1mca9s6-fill" data-item-order="0" transform="translate(74, 326)"><g id="tx_readines_zp1tsg1mca9s6-fill-merged" stroke="none" fill="#e0cb15" fill-opacity="1"><g><text style="font: bold 20px Roboto, sans-serif; white-space: pre;" transform="translate(118, 34)" font-weight="bold" font-size="20px" font-family="Roboto, sans-serif"><tspan x="-95.45" y="-0.5" dominant-baseline="ideographic">Readiness </tspan><tspan x="-97.69" y="23.5" dominant-baseline="ideographic">Diagnostic</tspan></text></g></g></g><g id="g-root-tx_adoption_9408b41mcabye-fill" data-item-order="0" transform="translate(818, 326)"><g id="tx_adoption_9408b41mcabye-fill-merged" stroke="none" fill="#ba5de5" fill-opacity="1"><g><text style="font: bold 20px Roboto, sans-serif; white-space: pre;" transform="translate(10, 34)" font-weight="bold" font-size="20px" font-family="Roboto, sans-serif"><tspan x="2" y="-0.5" dominant-baseline="ideographic">Adoption </tspan><tspan x="2" y="23.5" dominant-baseline="ideographic">Enablement</tspan></text></g></g></g><g id="g-root-ic_shop_vj0w1mcodmx-fill" data-item-order="0" transform="translate(476, 368)"></g><g id="g-root-tx_evaluate_92ra4w1mca9s7-fill" data-item-order="0" transform="translate(38, 386)"><g id="tx_evaluate_92ra4w1mca9s7-fill-merged" stroke="none" fill="#484848" fill-opacity="1"><g><text style="font: 15px Roboto, sans-serif; white-space: pre;" transform="translate(154, 28)" font-size="15px" font-family="Roboto, sans-serif"><tspan x="-134.93" y="-0.5" dominant-baseline="ideographic">Evaluates current AI </tspan><tspan x="-57.23" y="17.5" dominant-baseline="ideographic">maturity</tspan></text></g></g></g><g id="g-root-ic_2_8d8281mcfwnb-fill" data-item-order="0" transform="translate(374, 398)"></g><g id="g-root-ic_shie_1uua9001mcps7j-fill" data-item-order="0" transform="translate(578, 398)"></g><g id="g-root-tx_equipste_1uua9001mcaa6f-fill" data-item-order="0" transform="translate(818, 386)"><g id="tx_equipste_1uua9001mcaa6f-fill-merged" stroke="none" fill="#484848" fill-opacity="1"><g><text style="font: 15px Roboto, sans-serif; white-space: pre;" transform="translate(10, 28)" font-size="15px" font-family="Roboto, sans-serif"><tspan x="2" y="-0.5" dominant-baseline="ideographic">Equips teams to own </tspan><tspan x="2" y="17.5" dominant-baseline="ideographic">IP</tspan></text></g></g></g><g id="g-root-ic_aler_1hitqmo1mcabrc-fill" data-item-order="0" transform="translate(308, 488)"></g><g id="g-root-ic_idea_1d1rdhs1mc4phh-fill" data-item-order="0" transform="translate(644, 488)"></g><g id="g-root-cp_6_g-6_hwiv4g1mca9z4-stroke" data-item-order="-537506" transform="translate(612.718994140625, 421.87396240234375)"><g id="cp_6_g-6_hwiv4g1mca9z4-stroke" fill="none" stroke-linecap="round" stroke-linejoin="round" stroke-miterlimit="4" stroke="#ffffff" stroke-width="2" stroke-opacity="1"><g><path d="M 248.6696 41.364861L 176.9863 10.000061L 185.618 36.595961L 95.333 65.897961C 89.295 52.540561 81.8809 39.761561 73.1618 27.779461L 10 73.740861C 27.133 97.285561 36.3724 125.649861 36.394 154.768461L 114.5084 154.710361C 114.4976 140.138061 113.0131 125.686261 110.1225 111.562761L 200.4355 82.251561L 209.0672 108.847461L 248.6696 41.364861Z"></path></g></g></g><g id="g-root-cp_5_g-5_90vuvk1mcaart-stroke" data-item-order="-537502" transform="translate(543.739013671875, 267.7320556640625)"><g id="cp_5_g-5_90vuvk1mcaart-stroke" fill="none" stroke-linecap="round" stroke-linejoin="round" stroke-miterlimit="4" stroke="#ffffff" stroke-width="2" stroke-opacity="1"><g><path d="M 182.5163 10L 106.0864 26.7548L 128.7012 43.1992L 72.6198 120.324C 60.415 113.5237 47.516 107.8885 34.0836 103.535L 10 177.8442C 37.7001 186.8218 61.847 204.3382 78.9799 227.8829L 142.1418 181.9215C 133.1569 169.5742 122.9408 158.2852 111.6966 148.2021L 167.5228 71.4284L 190.1376 87.8728L 182.5163 10Z"></path></g></g></g><g id="g-root-cp_4_g-4_90vuvk1mcaaru-stroke" data-item-order="-537498" transform="translate(434.3210754394531, 197)"><g id="cp_4_g-4_90vuvk1mcaaru-stroke" fill="none" stroke-linecap="round" stroke-linejoin="round" stroke-miterlimit="4" stroke="#ffffff" stroke-width="2" stroke-opacity="1"><g><path d="M 75.940069 10L 128.679269 68.5L 100.299469 68.5L 100.299469 165.015C 114.897669 166.6052 129.373269 169.6885 143.495269 174.2649L 119.414069 248.5748C 91.713769 239.5981 61.882569 239.6212 34.196169 248.6408L 9.999969 174.3682C 23.598869 169.938 37.528069 166.8934 51.581069 165.2344L 51.581069 68.5L 23.200769 68.5L 75.940069 10Z"></path></g></g></g><g id="g-root-cp_3_g-3_4l2cr41mcabk3-stroke" data-item-order="-537494" transform="translate(275.5480041503906, 266.73199462890625)"><g id="cp_3_g-3_4l2cr41mcabk3-stroke" fill="none" stroke-linecap="round" stroke-linejoin="round" stroke-miterlimit="4" stroke="#ffffff" stroke-width="2" stroke-opacity="1"><g><path d="M 17.6213 10L 94.0512 26.7548L 71.4364 43.1992L 128.9135 122.2434C 141.5469 115.0599 154.9397 109.1319 168.9111 104.5908L 193.057 178.8797C 165.3645 187.8805 141.2323 205.4172 124.1191 228.9763L 60.9187 183.0679C 69.5582 171.1743 79.3396 160.2605 90.0816 150.4583L 32.6148 71.4284L 10 87.8728L 17.6213 10Z"></path></g></g></g><g id="g-root-cp_2_g-2_1ur5vkg1mca8zw-stroke" data-item-order="-537490" transform="translate(148, 421.88494873046875)"><g id="cp_2_g-2_1ur5vkg1mca8zw-stroke" fill="none" stroke-linecap="round" stroke-linejoin="round" stroke-miterlimit="4" stroke="#ffffff" stroke-width="2" stroke-opacity="1"><g><path d="M 10 41.4664L 81.6388 10L 73.0448 36.6081L 166.0591 66.6503C 172.1369 53.0649 179.635 40.0714 188.4792 27.8984L 251.6751 73.8129C 234.5596 97.3703 225.3413 125.7414 225.3413 154.86L 147.2269 154.86C 147.2269 140.5156 148.6549 126.287 151.4466 112.3722L 58.292 82.2847L 49.698 108.8928L 10 41.4664Z"></path></g></g></g><g id="g-root-tx_platform_1d1rac01mcaade-stroke" data-item-order="0" transform="translate(452, 86)"></g><g id="g-root-tx_selectsr_zqaryo1mcabyb-stroke" data-item-order="0" transform="translate(440, 146)"></g><g id="g-root-tx_aiplaybo_1usetqo1mcab60-stroke" data-item-order="0" transform="translate(194, 182)"></g><g id="g-root-tx_producti_qva8sw1mca9l8-stroke" data-item-order="0" transform="translate(686, 158)"></g><g id="g-root-tx_accessin_1hhksgg1mca9l5-stroke" data-item-order="0" transform="translate(182, 218)"></g><g id="g-root-tx_ensuresc_djtqfk1mcab65-stroke" data-item-order="0" transform="translate(686, 218)"></g><g id="g-root-tx_readines_zp1tsg1mca9s6-stroke" data-item-order="0" transform="translate(74, 326)"></g><g id="g-root-tx_adoption_9408b41mcabye-stroke" data-item-order="0" transform="translate(818, 326)"></g><g id="g-root-ic_shop_vj0w1mcodmx-stroke" data-item-order="0" transform="translate(476, 368)"><g id="ic_shop_vj0w1mcodmx-stroke" fill="none" stroke-linecap="round" stroke-linejoin="round" stroke-miterlimit="4" stroke="#ffffff" stroke-width="2" stroke-opacity="1"><g><path d="M 39 51C 39 52.656857 40.343147 54 42 54C 43.656857 54 45 52.656857 45 51C 45 49.343147 43.656857 48 42 48C 40.343147 48 39 49.343147 39 51ZM 17 51C 17 52.656857 18.343147 54 20 54C 21.656855 54 23 52.656857 23 51C 23 49.343147 21.656855 48 20 48C 18.343147 48 17 49.343147 17 51ZM 57 14L 54 14L 50 44L 11 44M 21 28L 21 37C 21 37.552284 21.447716 38 22 38L 38 38C 38.552284 38 39 37.552284 39 37L 39 28M 15 27L 28.690001 15.136C 29.441772 14.484344 30.558228 14.484344 31.309999 15.136L 45 27M 33 38L 33 31C 33 30.447716 32.552284 30 32 30L 28 30C 27.447716 30 27 30.447716 27 31L 27 38"></path></g></g></g><g id="g-root-tx_evaluate_92ra4w1mca9s7-stroke" data-item-order="0" transform="translate(38, 386)"></g><g id="g-root-ic_2_8d8281mcfwnb-stroke" data-item-order="0" transform="translate(374, 398)"><g id="ic_2_8d8281mcfwnb-stroke" fill="none" stroke-linecap="round" stroke-linejoin="round" stroke-miterlimit="4" stroke="#ffffff" stroke-width="2" stroke-opacity="1"><g><path d="M 53.299999 56.400002L 18.900021 56.400002C 16.500019 56.400002 14.5 54.400002 14.5 52C 14.5 49.599998 16.500019 47.599998 18.900021 47.599998L 50.5 47.599998M 50.5 47.599998C 52.099998 47.599998 53.5 46.200001 53.5 44.599998L 53.5 14.6C 53.5 13 52.099998 11.59999 50.5 11.59999L 18.5 11.59999C 16.299999 11.59999 14.5 13.4 14.5 15.6L 14.5 52.799999M 50.5 47.599998L 50.5 56.400002M 33.900002 32.375C 35.556801 32.375 36.900002 31.031799 36.900002 29.37504C 36.900002 27.71818 35.556801 26.37504 33.900002 26.37504C 32.243 26.37504 30.9 27.71818 30.9 29.37504C 30.9 31.031799 32.243 32.375 33.900002 32.375ZM 10 10M 36.299999 18.600021L 37.099998 21.200039C 37.299999 22.200039 38.299999 22.60004 39.299999 22.40004L 42.099998 21.800041C 44.5 21.200039 46.099998 24.20002 44.5 26.000019L 42.5 28.000019C 41.900002 28.80002 41.900002 29.80002 42.5 30.6L 44.5 32.599998C 46.099998 34.400002 44.5 37.200001 42.099998 36.799999L 39.299999 36.200001C 38.299999 36 37.5 36.599998 37.099998 37.400002L 36.299999 40C 35.5 42.400002 32.299999 42.400002 31.5 40L 30.700001 37.400002C 30.5 36.400002 29.500059 36 28.500059 36.200001L 25.700081 36.799999C 23.300079 37.400002 21.70006 34.400002 23.30006 32.599998L 25.30006 30.6C 25.900059 29.80002 25.900059 28.80002 25.30006 28.000019L 23.30006 26.000019C 21.70006 24.20002 23.300079 21.40004 25.700081 21.800041L 28.500059 22.40004C 29.500059 22.60004 30.299999 22.00004 30.700001 21.200039L 31.5 18.600021C 32.299999 16.400021 35.700001 16.400021 36.299999 18.600021Z"></path></g></g></g><g id="g-root-ic_shie_1uua9001mcps7j-stroke" data-item-order="0" transform="translate(578, 398)"><g id="ic_shie_1uua9001mcps7j-stroke" fill="none" stroke-linecap="round" stroke-linejoin="round" stroke-miterlimit="4" stroke="#ffffff" stroke-width="2" stroke-opacity="1"><g><path d="M 45 24L 31.42 36.68C 30.644806 37.429306 29.415194 37.429306 28.639999 36.68L 25 33M 15 13C 15 11.895431 15.895431 11 17 11L 51 11C 52.104568 11 53 11.895431 53 13L 53 25.52C 53.004192 38.727535 45.687969 50.849361 34 57C 22.312033 50.849361 14.99581 38.727535 15 25.52Z"></path></g></g></g><g id="g-root-tx_equipste_1uua9001mcaa6f-stroke" data-item-order="0" transform="translate(818, 386)"></g><g id="g-root-ic_aler_1hitqmo1mcabrc-stroke" data-item-order="0" transform="translate(308, 488)"><g id="ic_aler_1hitqmo1mcabrc-stroke" fill="none" stroke-linecap="round" stroke-linejoin="round" stroke-miterlimit="4" stroke="#ffffff" stroke-width="2" stroke-opacity="1"><g><path d="M 44.5 51L 44.5 51M 44.5 46.5L 44.5 40.5M 46.175999 34.5C 45.845634 33.881348 45.201336 33.495003 44.5 33.495003C 43.798664 33.495003 43.154366 33.881348 42.824001 34.5L 32.711998 53.776001C 32.408127 54.353462 32.431702 55.04845 32.774002 55.604C 33.120461 56.162094 33.73111 56.501095 34.388 56.500004L 54.612 56.5C 55.26889 56.501095 55.879543 56.162094 56.226002 55.604004C 56.568298 55.04845 56.591873 54.353462 56.287998 53.776001ZM 27.431999 52.799999C 26.025408 53.904175 24.28821 54.502968 22.5 54.5L 18.5 54.5C 14.081722 54.5 10.5 50.918278 10.5 46.5L 10.5 24.5C 10.5 23.395432 11.395431 22.5 12.5 22.5L 28.5 22.5C 29.60457 22.5 30.5 23.395432 30.5 24.5L 30.5 44M 12.5 10.5L 28.5 10.5L 28.5 22.5L 12.5 22.5ZM 17.49 16.284L 17.49 17.304001M 23.49 16.284L 23.49 17.304001"></path></g></g></g><g id="g-root-ic_idea_1d1rdhs1mc4phh-stroke" data-item-order="0" transform="translate(644, 488)"><g id="ic_idea_1d1rdhs1mc4phh-stroke" fill="none" stroke-linecap="round" stroke-linejoin="round" stroke-miterlimit="4" stroke="#ffffff" stroke-width="2" stroke-opacity="1"><g><path d="M 12 57C 11.874946 53.780693 13.099022 50.655247 15.377134 48.377136C 17.655245 46.099022 20.780693 44.874947 24 45C 27.219309 44.874947 30.344755 46.099022 32.622868 48.377136C 34.900978 50.655247 36.125053 53.780693 36 57ZM 16 34C 16 38.418278 19.581722 42 24 42C 28.418278 42 32 38.418278 32 34C 32 29.581722 28.418278 26 24 26C 19.581722 26 16 29.581722 16 34M 32 32.68C 30.569401 33.576534 28.90794 34.035347 27.219999 34C 23.398668 34.009598 19.918804 31.801521 18.299999 28.34M 46.439999 37L 43.560001 37M 48 33L 42 33M 45 11L 45 13M 33.599998 23L 36 23M 56 23L 54 23M 35 14L 37 16M 55 14L 53 16M 51 22C 50.905949 18.726038 48.27396 16.094048 44.999996 16C 41.726036 16.094048 39.094048 18.726038 39 22C 39.044998 24.080042 40.185844 25.981453 42 27L 42 28C 42 28.552284 42.447716 29 43 29L 47 29C 47.552284 29 48 28.552284 48 28L 48 27C 49.814156 25.981453 50.955002 24.080042 51 22ZM 24 49L 24 51"></path></g></g></g></g></g><path id="w90wdu81pea22v" d="M65.283 12.757a.35.35 0 0 0 .584.157l5.203-5.141-6.183 3.523.396 1.461zm-2.216-11.7a.35.35 0 0 0-.522.305v3.111l3.276-1.868-2.754-1.548zm3.728 2.105l-4.25 2.421v2.445l6.391-3.644-2.141-1.222zm4.708 3.303a.35.35 0 0 0 0-.609l-1.592-.9-7.365 4.199v1.782a.35.35 0 0 0 .523.305l8.435-4.777z M44.542 2.513c0-.433.355-.783.792-.783s.792.35.792.783-.355.783-.792.783-.792-.35-.792-.783zm59.171 0c0-.433.355-.783.792-.783s.792.35.792.783-.355.783-.792.783-.792-.35-.792-.783zm-85.951 7.636h-1.27v-.487c-.276.201-.864.609-1.881.609-1.202 0-2.274-.794-2.137-2.078.118-1.106 1.153-1.584 1.848-1.727l2.17-.345c0-.539-.29-.956-1.064-1.006s-1.21.305-1.571 1.017l-1.124-.605c1.218-2.631 5.029-1.764 5.029.414v4.207zm-1.27-2.86c.006.396-.062 1.112-.819 1.59-.587.37-1.841.299-1.903-.395-.049-.555.461-.791.906-.898l1.816-.297zm72.662 2.86h-1.27v-.487c-.276.201-.864.609-1.881.609-1.202 0-2.274-.794-2.137-2.078.118-1.106 1.153-1.584 1.848-1.727l2.17-.345c0-.539-.29-.956-1.064-1.006s-1.21.305-1.571 1.017l-1.124-.605c1.218-2.631 5.029-1.764 5.029.414v4.207zm-1.27-2.86c.006.396-.062 1.112-.82 1.59-.587.37-1.841.299-1.903-.395-.049-.555.461-.791.906-.898l1.816-.297zM99.096 10.149H97.85v-8.45h1.246v4.895l2.68-2.559h1.738l-2.633 2.535 2.715 3.578h-1.556l-2.077-2.707-.867.844v1.863zm6.053-6.114h-1.255v6.113h1.255V4.035zm-59.2 0h-1.255v6.113h1.255V4.035zm5.584 6.113V1.697h1.255v2.695c.361-.346 1-.485 1.47-.485 1.452 0 2.477 1.082 2.457 2.448v3.792h-1.27v-3.68c0-.408-.214-1.339-1.315-1.339-.968 0-1.342.756-1.342 1.339v3.681h-1.255zm-4.76-4.894V4.039h.621a.45.45 0 0 0 .45-.45v-.855h1.251v1.305h1.309v1.215h-1.309v3.109c0 .293.105.664.648.664.365 0 .531-.035.736-.07v1.137s-.361.113-.857.113c-1.398 0-1.777-1.051-1.777-1.788V5.254h-1.071zM36.528 4.039h-1.394l2.191 6.106h1.125l1.234-3.918 1.238 3.918h1.129l2.188-6.106h-1.383l-1.359 3.93-1.256-3.93h-1.124l-1.242 3.957-1.348-3.957zM26.212 7.141c-.02 1.566 1.187 3.129 3.223 3.129 1.566 0 2.383-.918 2.734-1.719L31.172 8c-.315.399-.801 1.094-1.738 1.094-1.145 0-1.825-.781-1.891-1.52h4.625c.074-.284.148-.995-.03-1.559-.336-1.064-1.221-2.102-2.839-2.102s-3.088 1.152-3.088 3.227zm1.363-.75h3.348c-.055-.43-.566-1.301-1.623-1.301a1.79 1.79 0 0 0-1.725 1.301zm-8.758.75c.038 1.758 1.277 3.133 3.145 3.133 1.074 0 1.723-.477 1.961-.672v.547h1.242V1.703h-1.258v2.888c-.414-.36-1.062-.68-1.93-.68-1.91 0-3.198 1.473-3.16 3.23zm1.309-.08c0 1.119.723 1.978 1.836 1.978a1.88 1.88 0 0 0 1.94-1.904c0-1.371-1.011-1.99-1.972-1.99s-1.805.798-1.805 1.916zm76.683-.028C96.771 5.275 95.532 3.9 93.664 3.9c-1.074 0-1.723.477-1.961.672v-.547h-1.242v8.22h1.258V9.583c.414.36 1.063.68 1.93.68 1.91 0 3.198-1.473 3.16-3.23zm-1.309.08c0-1.119-.723-1.978-1.836-1.978a1.88 1.88 0 0 0-1.94 1.904c0 1.371 1.011 1.99 1.972 1.99S95.5 8.231 95.5 7.113zM106.441 10.173V4.036h1.254v.382c.361-.346 1-.485 1.47-.485 1.452 0 2.477 1.082 2.457 2.448v3.792h-1.27V6.492c0-.408-.214-1.339-1.315-1.339-.969 0-1.342.756-1.342 1.339v3.681h-1.254zm-30.383-.021V1.824h1.084l4.215 5.777V1.824h1.32v8.328h-1.094l-4.207-5.796v5.796h-1.319zM5.24 10.149H4V2.377h1.014l2.664 3.597 2.654-3.592h1.03v7.766h-1.256V4.762L7.678 8.068 5.24 4.742v5.407z" transform="translate(884, 627)" fill="#80808088" stroke="none"></path></svg>